<?xml version="1.0" encoding="UTF-8"?> <svg xmlns="http://www.w3.org/2000/svg" width="500" height="500" viewBox="0 0 500 500"><linearGradient id="gradient1" gradientUnits="userSpaceOnUse" x1="-47.7573" y1="670.4185" x2="-46.2402" y2="670.4185" gradientTransform="matrix(297.6413 -138.7924 -138.7924 -297.6413 107331.2734 193362)"><stop offset="0" style="stop-color:#86CBC5"></stop><stop offset="1" style="stop-color:#24597D"></stop></linearGradient><path fill="url(#gradient1)" d="M467.57,126.88l-4.03,4.38v1.42l-8.33,0.87c-0.81,0.09-1.61,0.28-2.37,0.58l-0.94,0.4 c-0.63,0.25-1.29,0.36-1.96,0.36h-4.07l-2.63,0.81l-1.01,0.81l-1.19,1.19c-0.7,0.68-1.29,1.48-1.74,2.33l-0.48,0.87 c-0.15,0.3-0.22,0.66-0.17,1l0.19,1.29c0.09,0.66,0.25,1.33,0.46,1.97l0.28,0.87l3.66,2.03h-1.27c-0.5,0-0.99-0.09-1.44-0.31 l-1.14-0.49v3.75c0,0.17-0.13,0.3-0.3,0.32l-3.9,0.36c-0.15,0.02-0.27-0.09-0.28-0.25c-0.04-0.65-0.13-2.31,0.02-3.58 c0.13-1.02,0.09-1.88,0.06-2.37c-0.04-0.55-0.06-1.08-0.06-1.63v-4.13h-2.03l-2.33,7.96c-0.06,0.21-0.26,0.3-0.45,0.25l-2.03-0.72 c-0.64-0.23-1.25-0.51-1.84-0.85c-1.48-0.83-5.02-2.46-9.57-2.18c-6.1,0.4-7.53,7.31-7.53,7.31l-0.99,5.69 c-0.15,0.83-0.49,1.61-1.02,2.27l-3.24,4.15c-0.13,0.15-0.34,0.21-0.51,0.11l-1.65-0.95c-0.53-0.3-1.02-0.62-1.5-0.99 c-2.56-1.93-12.58-8.36-17.87,4.32c-4.74,11.37-4.19,16.72-3.72,18.53c0.15,0.57,0.12,1.18-0.07,1.75 c-0.34,1.02-0.8,2.54-0.66,3.07c0.19,0.79,3.03,7.09,3.03,7.09l1.17,4.04c0.17,0.55,0.25,1.14,0.25,1.73V204 c0,0.19-0.12,0.34-0.29,0.38l-5.93,1.63c-0.28,0.08-0.61-0.02-0.79-0.26l-1.44-1.73c-0.17-0.19-0.19-0.47-0.07-0.7l1.4-2.81 c0.27-0.55,0.28-1.19,0.04-1.76l-0.28-0.63c-0.23-0.47-0.57-0.87-0.99-1.17l-1.37-0.99c-0.53-0.38-1.17-0.59-1.84-0.59h-1.73 c-0.87,0-1.72,0.23-2.46,0.67l-2.35,1.33c-0.51,0.3-1,0.65-1.46,1.02l-2.61,2.18c-0.23,0.19-0.46,0.4-0.66,0.62l-3.53,3.89 c-0.28,0.28-0.53,0.61-0.75,0.95l-2.14,3.13c-0.09,0.13-0.26,0.23-0.43,0.24l-3.13,0.19l0.15-2.05v-4c0-0.11-0.07-0.21-0.19-0.21 h-2.31c-0.23,0-0.44,0-0.66,0.04l-1.69,0.19c-0.68,0.1-1.38,0.06-2.06-0.04c-5.88-0.83-10.12,1.18-12.79,3.2 c-1.97,1.5-3.45,3.54-4.38,5.84l-2.62,6.38c-0.06,0.1-0.04,0.23,0.04,0.3l3.47,4.04c0.04,0.06,0.06,0.13,0.02,0.19l-2.18,4.57 l-3.24,4.87l-1.84,5.48l-1.33,6.06c-0.06,0.27-0.23,0.49-0.47,0.63l-3.75,1.88c-0.21,0.09-0.4,0.25-0.55,0.44l-2.22,2.64 c-0.4,0.47-0.85,0.91-1.37,1.27l-2.56,1.8c-0.07,0.08-0.17,0.11-0.28,0.11c-0.64,0-2.98-0.02-3.51-0.42 c-0.57-0.44-2.82-2.05-2.82-2.05v3.2c0,0.21-0.06,0.42-0.13,0.61l-1.82,4.55c-0.06,0.09-0.17,0.13-0.27,0.09l-3.45-1.73 c-0.28-0.13-0.59-0.19-0.89-0.15l-5.47,0.7c-0.23,0.04-0.47,0.08-0.68,0.15l-4.99,1.55c-0.78,0.25-1.59,0.42-2.41,0.51l-3.71,0.45 c-0.08,0-0.15-0.04-0.19-0.09l-0.95-2.05c-0.4-0.83-1.1-1.46-1.95-1.76l-1.8-0.63c-0.97-0.34-2.03-0.21-2.9,0.34l-1.65,1.04 c-0.55,0.34-1.02,0.79-1.4,1.33l-2.29,3.32c-0.27,0.36-0.44,0.76-0.53,1.2l-1.27,6.05l-3.66,6.9l-1.21,5.48v4.76 c0,0.08-0.06,0.13-0.11,0.13l-6.33,1.15c-0.17,0.04-0.34,0.08-0.51,0.11l-4.45,1.25c-0.23,0.06-0.42,0.23-0.49,0.45l-1.99,5.25 c-0.07,0.17-0.07,0.38,0,0.55l2.2,5.14c0.06,0.11-0.06,0.23-0.17,0.21l-3.75-0.89c-0.13-0.04-0.28,0-0.41,0.08l-5.63,3.75 c-0.17,0.11-0.36,0.13-0.55,0.04l-1.93-0.87l-2.1,4.19c-0.1,0.17-0.23,0.3-0.4,0.4l-3.7,1.65c-0.08,0.04-0.13,0.08-0.19,0.12 l-5.78,4.04c-0.13,0.09-0.27,0.24-0.32,0.41l-1.58,3.77c-0.06,0.15-0.04,0.31,0.06,0.42l2.54,2.96c0.05,0.05,0.15,0.09,0.24,0.09 l6.67-0.59c0.06,0,0.1-0.02,0.15-0.04l6.94-3.38c0.06-0.04,0.11-0.02,0.17,0.02l1.69,1.69c0.04,0.06,0.09,0.08,0.15,0.12 l4.51,2.16c0.04,0.02,0.08,0.02,0.09,0c0.23-0.36,1.74-2.99,1.99-3.83c0.25-0.78,2.24-2.24,2.24-2.24l3.92,2.35 c0.08,0.06,0.13,0.15,0.13,0.26v5.18c0,0.08-0.02,0.17-0.09,0.23l-4.09,4.64c-0.08,0.08-0.17,0.15-0.29,0.17l-3.49,0.93 c-0.09,0.04-0.15,0.09-0.17,0.19c-0.13,0.83-0.8,5.02-0.8,5.95c0,0.93-0.51,7-0.59,7.98c-0.02,0.1,0.04,0.15,0.11,0.21l4.57,2.46 c0.11,0.05,0.19,0.15,0.23,0.26c0.17,0.55,0.63,2.29-0.06,3.49c-0.76,1.31-3.77,0.19-4.21,0.02c-0.04-0.02-0.08-0.02-0.11,0 c-0.59,0.13-5.27,1.25-6.03,2.01c-0.81,0.81-1.21,4.66-1.21,4.66l2.1,2.85l-0.3,0.49l-3.11-1.86c-0.06-0.04-0.13,0-0.17,0.05 l-1.97,5.37l-1.76-1.95c-0.04-0.05-0.08-0.09-0.11-0.15l-2.78-6.01l-7.26-3.45l-8.59,0.6c0,0-5.48,2.24-6.08,3.05 c-0.42,0.55-0.85,1.51-1.06,2.03c-0.1,0.25-0.04,0.5,0.13,0.68l2.56,2.77l-2.16,0.97c-0.04,0.04-0.1,0.06-0.17,0.06l-3.62,0.97 c-0.1,0.02-0.17,0.05-0.27,0.09l-4.7,2.82c-0.15,0.12-0.34,0.15-0.55,0.15h-5.99l-7.11,0.61l-5.67,1.02l-6.5,0.6 c0,0-6.69,1.63-7.32,1.63c-0.6,0-4.66,2.63-4.66,2.63l-3.85,2.24c0,0-1.21,5.06-1.21,5.88c0,0.81,0.19,3.45,0.19,3.45l2.03,2.84 v4.06l-1.44,1.78c-0.25,0.28-0.61,0.43-0.97,0.41l-3.26-0.17l-5.08-0.79l-2.35-1.38c-0.06-0.02-0.09-0.08-0.09-0.15v-3.96 l-2.63-1.61l-4.45-0.61l-4.47-3.26l-5.68-1.82l-3.24,1.02l-3.66,1h-12.17l-4.87,1.82l-5.27,4.47l-3.87,9.95l-1,7.39l0.19,5.8 l1.02,2.64l4.87,2.03l-2.64,1l-3.45,0.81l-3.26-1l-3.24-1.42l-4.26-0.81l-4.06,0.81h-2.24l0.19-3.05c0-0.25,0.17-0.46,0.4-0.51 l3.22-0.83c0.17-0.06,0.34-0.08,0.51-0.08h4.34c0.66,0,1.29-0.36,1.63-0.95l1.48-2.5l-1.21-8.53l-4.26-4.25l-7.3-1.42 c0,0-4.21,0.87-5,1.14c-0.81,0.28-3.53,0.68-5.02,1.08c-1.48,0.42-3.38,0.95-4.42,1.23c-1.04,0.27-4.51,1.08-5.46,1.08 c-0.95,0-2.03-1.08-2.43-2.16c-0.42-1.1,0.53-2.58,0.53-2.58c0,0,2.31-0.68,2.58-1.21c0.26-0.55,1.5-1.76,1.63-2.58 c0.13-0.82-0.13-2.43-0.13-2.43c0,0-1.36-1.76-1.76-1.89c-0.42-0.13-3.92-0.13-3.92-0.13l-2.31,0.4l-4.59,0.68l-1.91-0.61 C83.44,453.84,161.32,500,249.99,500C388.07,500,500,388.07,500,250c0-44.78-11.78-86.8-32.4-123.15 C467.59,126.86,467.58,126.87,467.57,126.88"></path><path fill="#FFFFFF" d="M430.1,147.98c0.19,0.06,0.4-0.04,0.45-0.25l2.33-7.96h2.03v4.13c0,0.55,0.02,1.08,0.06,1.63 c0.04,0.49,0.08,1.35-0.06,2.37c-0.15,1.27-0.06,2.94-0.02,3.58c0.02,0.15,0.13,0.27,0.28,0.25l3.9-0.36 c0.17-0.02,0.3-0.16,0.3-0.33v-3.74l1.16,0.5c0.45,0.19,0.93,0.29,1.42,0.29h1.27l-3.66-2.03l-0.28-0.87 c-0.21-0.64-0.36-1.31-0.46-1.97l-0.19-1.29c-0.06-0.34,0.02-0.7,0.17-1l0.47-0.86c0.47-0.86,1.06-1.65,1.75-2.34l1.2-1.19l1-0.81 l2.63-0.81h4.24c0.61,0,1.22-0.12,1.79-0.36l0.95-0.4c0.76-0.3,1.55-0.49,2.37-0.59l8.32-0.87v-1.42l4.04-4.38 c0-0.02,0.01-0.04,0.01-0.07C424.62,51.1,343.28,0,250,0C112.09,0-1.41,114.71,0,252.6c0.49,48.42,14.76,93.54,39.06,131.63 l1.91,0.61l4.59-0.68l2.31-0.4c0,0,3.51,0,3.92,0.13c0.4,0.13,1.76,1.89,1.76,1.89s0.27,1.61,0.13,2.43 c-0.13,0.82-1.37,2.03-1.63,2.58c-0.27,0.53-2.58,1.21-2.58,1.21s-0.95,1.48-0.53,2.58c0.4,1.08,1.48,2.16,2.43,2.16 s4.42-0.81,5.46-1.08c1.04-0.28,2.94-0.82,4.42-1.23c1.5-0.4,4.21-0.8,5.02-1.08c0.8-0.27,5-1.14,5-1.14l7.3,1.42l4.26,4.25 l1.21,8.53l-1.48,2.5c-0.35,0.59-0.98,0.95-1.66,0.95H76.6c-0.14,0.02-0.29,0.04-0.43,0.05l-3.3,0.86 c-0.23,0.06-0.4,0.27-0.4,0.51l-0.19,3.05h2.24l4.06-0.82l4.26,0.82l3.24,1.42l3.26,1l3.45-0.81l2.63-1.01l-4.87-2.03l-1.02-2.63 l-0.19-5.8l1-7.39l3.87-9.95l5.27-4.47l4.87-1.82h12.17l3.66-1l3.24-1.02l5.69,1.82l4.47,3.26l4.45,0.61l2.63,1.61v3.96 c0.03,0.05,0.05,0.09,0.08,0.14l2.36,1.39l5.08,0.79l3.26,0.17c0.38,0.02,0.74-0.14,0.98-0.44l1.42-1.76v-4.06l-2.03-2.84 c0,0-0.19-2.63-0.19-3.45c0-0.82,1.21-5.88,1.21-5.88l3.85-2.24c0,0,4.06-2.63,4.66-2.63c0.63,0,7.32-1.63,7.32-1.63l6.5-0.61 l5.67-1.02l7.11-0.61h5.99c0.21,0,0.4-0.04,0.55-0.15l4.6-2.77c0.1-0.04,0.26-0.11,0.37-0.15l3.62-0.96 c0.08,0,0.13-0.02,0.17-0.06l2.16-0.97l-2.56-2.77c-0.17-0.19-0.23-0.44-0.13-0.68c0.21-0.51,0.65-1.48,1.06-2.03 c0.61-0.81,6.08-3.05,6.08-3.05l8.59-0.61l7.26,3.45l2.79,6.01c0.02,0.03,0.04,0.06,0.06,0.09l1.81,2.01l1.97-5.36 c0.07-0.02,0.1-0.04,0.17-0.06l3.11,1.86l0.3-0.49l-2.1-2.84c0,0,0.4-3.85,1.21-4.66c0.76-0.76,5.44-1.88,6.03-2.01 c0.04-0.02,0.08-0.02,0.11,0c0.44,0.17,3.45,1.29,4.21-0.02c0.68-1.19,0.23-2.94,0.06-3.49c-0.04-0.11-0.11-0.21-0.23-0.27 l-4.57-2.46c-0.08-0.06-0.13-0.11-0.11-0.21c0.08-0.99,0.59-7.05,0.59-7.98c0-0.93,0.66-5.12,0.8-5.95 c0.02-0.09,0.08-0.15,0.17-0.19l3.49-0.93c0.1-0.06,0.19-0.12,0.29-0.18l4.08-4.63c0.08-0.06,0.09-0.15,0.09-0.23v-5.17 c-0.05-0.09-0.11-0.19-0.16-0.28l-3.56-2.13c-0.21-0.12-0.46-0.11-0.65,0.03c-0.57,0.45-1.74,1.42-1.93,2 c-0.24,0.82-1.71,3.37-1.97,3.8c-0.04,0.01-0.07,0.02-0.11,0.03l-4.48-2.15c-0.06-0.04-0.12-0.09-0.18-0.13l-1.68-1.67 c-0.07-0.01-0.12-0.02-0.18-0.03l-6.92,3.36c-0.06,0.01-0.11,0.03-0.17,0.05l-6.68,0.59c-0.08-0.03-0.15-0.06-0.24-0.09 l-2.53-2.94c-0.02-0.16-0.04-0.28-0.07-0.43l1.57-3.77c0.12-0.15,0.23-0.29,0.35-0.44l5.75-4.01c0.07-0.04,0.18-0.1,0.24-0.14 l3.64-1.62c0.13-0.13,0.25-0.24,0.38-0.37l2.12-4.22l1.95,0.88c0.17,0.08,0.38,0.06,0.54-0.04l5.63-3.75 c0.15-0.03,0.27-0.05,0.42-0.08l3.75,0.89c0.11,0.02,0.23-0.09,0.17-0.21l-2.2-5.14c-0.08-0.17-0.08-0.38,0-0.55l1.99-5.25 c0.08-0.23,0.27-0.4,0.49-0.46l4.45-1.25c0.14-0.03,0.28-0.06,0.42-0.1l6.43-1.17c0.06,0,0.11-0.06,0.11-0.13v-4.76l1.21-5.48 l3.66-6.9l1.27-6.05c0.09-0.44,0.26-0.83,0.53-1.19l2.29-3.32c0.38-0.53,0.85-0.99,1.4-1.33l1.65-1.04 c0.87-0.55,1.94-0.67,2.92-0.33l1.79,0.62c0.85,0.3,1.55,0.93,1.95,1.76l0.94,2.03c0.07,0.04,0.13,0.07,0.2,0.11l3.71-0.45 c0.84-0.1,1.67-0.28,2.48-0.54l4.95-1.54c0.22-0.05,0.43-0.09,0.65-0.14l5.48-0.7c0.31-0.04,0.62,0.01,0.89,0.15l3.46,1.73 c0.1-0.04,0.15-0.06,0.26-0.1l1.85-4.63c0.03-0.18,0.07-0.35,0.1-0.53v-3.2c0,0,2.25,1.61,2.82,2.05 c0.52,0.39,2.74,0.42,3.45,0.42c0.11-0.03,0.21-0.07,0.32-0.1l2.49-1.75c0.54-0.38,1.03-0.83,1.45-1.33l2.22-2.63 c0.15-0.19,0.34-0.34,0.55-0.44l3.73-1.87c0.25-0.12,0.43-0.36,0.5-0.64l1.33-6.06l1.84-5.48l3.24-4.87l2.18-4.57 c-0.01-0.07-0.02-0.13-0.03-0.2l-3.46-4.03c-0.02-0.1-0.03-0.18-0.05-0.28l2.62-6.41c0.93-2.29,2.41-4.34,4.38-5.84 c2.65-2.01,6.86-4.01,12.67-3.22c0.73,0.1,1.46,0.14,2.19,0.05l1.7-0.19c0.22-0.01,0.43-0.03,0.65-0.04h2.31 c0.11,0,0.19,0.09,0.19,0.21v4l-0.15,2.05l3.13-0.19c0.15-0.09,0.28-0.16,0.43-0.25l2.14-3.13c0.23-0.34,0.47-0.66,0.76-0.95 l3.45-3.8c0.25-0.24,0.49-0.47,0.74-0.71l2.61-2.18c0.49-0.41,1.03-0.78,1.58-1.09l2.23-1.26c0.74-0.44,1.59-0.66,2.46-0.66h1.75 c0.65,0,1.29,0.21,1.82,0.59l1.36,0.99c0.42,0.3,0.76,0.7,0.99,1.17l0.28,0.63c0.25,0.57,0.23,1.21-0.04,1.76l-1.4,2.81 c-0.12,0.23-0.08,0.5,0.08,0.69l1.46,1.75c0.19,0.23,0.49,0.32,0.78,0.24l5.93-1.63c0.17-0.04,0.28-0.19,0.28-0.38v-1.65 c0-0.59-0.08-1.18-0.25-1.73l-1.18-4.04c0,0-2.84-6.29-3.03-7.09c-0.13-0.53,0.32-2.05,0.66-3.07c0.19-0.57,0.23-1.18,0.08-1.74 c-0.47-1.82-1.02-7.16,3.71-18.54c5.27-12.63,15.24-6.3,17.84-4.34c0.49,0.37,0.99,0.7,1.53,1.01l1.65,0.95 c0.17,0.09,0.38,0.04,0.51-0.11l3.24-4.15c0.53-0.66,0.87-1.44,1.02-2.27l0.99-5.69c0,0,1.42-6.92,7.53-7.32 c4.59-0.29,8.16,1.38,9.62,2.2c0.58,0.33,1.17,0.61,1.79,0.83L430.1,147.98z"></path><path opacity="0.1" fill="#FFFFFF" d="M428.31,147.34l-0.24-0.09c-0.65-0.23-1.25-0.51-1.84-0.85 c-1.48-0.83-5.02-2.46-9.57-2.18c-6.1,0.4-7.53,7.32-7.53,7.32l-0.99,5.69c-0.15,0.83-0.49,1.61-1.02,2.27l-3.24,4.15 c-0.13,0.15-0.34,0.21-0.51,0.11l-1.65-0.95c-0.53-0.3-1.02-0.63-1.5-0.98c-2.56-1.93-12.58-8.36-17.87,4.32 c-4.74,11.37-4.19,16.72-3.71,18.54c0.15,0.57,0.11,1.18-0.08,1.74c-0.34,1.02-0.8,2.54-0.66,3.07c0.19,0.8,3.03,7.09,3.03,7.09 l1.18,4.04c0.17,0.55,0.25,1.14,0.25,1.73V204c0,0.19-0.11,0.34-0.28,0.38l-5.93,1.63c-0.28,0.08-0.61-0.02-0.8-0.26l-1.44-1.73 c-0.17-0.19-0.19-0.47-0.08-0.7l1.4-2.81c0.26-0.55,0.28-1.19,0.04-1.76l-0.28-0.62c-0.23-0.47-0.57-0.87-0.99-1.18l-1.37-0.99 c-0.53-0.38-1.18-0.59-1.84-0.59h-1.72c-0.87,0-1.73,0.23-2.46,0.66l-2.35,1.33c-0.51,0.3-1,0.64-1.46,1.02l-2.61,2.18 c-0.23,0.19-0.46,0.4-0.66,0.63l-3.52,3.89c-0.28,0.28-0.53,0.61-0.76,0.95l-2.14,3.13c-0.09,0.13-0.26,0.23-0.44,0.25l-3.13,0.19 l0.15-2.05v-4c0-0.11-0.08-0.21-0.19-0.21h-2.31c-0.23,0-0.44,0-0.66,0.04l-1.69,0.19c-0.68,0.09-1.38,0.06-2.07-0.04 c-5.88-0.83-10.12,1.17-12.79,3.2c-1.97,1.5-3.45,3.54-4.38,5.84l-2.62,6.39c-0.06,0.1-0.04,0.23,0.04,0.3l3.47,4.04 c0.04,0.06,0.06,0.13,0.02,0.19l-2.18,4.57l-3.24,4.87l-1.84,5.48l-1.33,6.06c-0.06,0.27-0.23,0.49-0.47,0.63l-3.75,1.88 c-0.21,0.09-0.4,0.25-0.55,0.44l-2.22,2.63c-0.4,0.47-0.85,0.91-1.36,1.27l-2.56,1.8c-0.08,0.08-0.17,0.11-0.28,0.11 c-0.65,0-2.98-0.02-3.51-0.42c-0.57-0.44-2.83-2.05-2.83-2.05v3.2c0,0.21-0.06,0.42-0.13,0.61l-1.82,4.55 c-0.06,0.09-0.17,0.13-0.27,0.09l-3.45-1.73c-0.28-0.13-0.59-0.19-0.89-0.15l-5.48,0.7c-0.23,0.04-0.47,0.08-0.68,0.15l-4.99,1.55 c-0.78,0.25-1.59,0.42-2.41,0.51l-3.72,0.46c-0.07,0-0.15-0.04-0.19-0.09l-0.95-2.05c-0.4-0.83-1.1-1.46-1.95-1.76l-1.8-0.63 c-0.96-0.34-2.03-0.21-2.9,0.34l-1.65,1.04c-0.55,0.34-1.02,0.8-1.4,1.33l-2.29,3.32c-0.27,0.36-0.44,0.76-0.53,1.19l-1.27,6.05 l-3.66,6.9l-1.21,5.48v4.76c0,0.08-0.06,0.13-0.11,0.13l-6.33,1.16c-0.17,0.04-0.34,0.08-0.51,0.11l-4.45,1.25 c-0.23,0.06-0.42,0.23-0.49,0.45l-1.99,5.25c-0.08,0.17-0.08,0.38,0,0.55l2.2,5.14c0.06,0.11-0.06,0.23-0.17,0.21l-3.75-0.89 c-0.13-0.04-0.28,0-0.42,0.08l-5.63,3.75c-0.17,0.11-0.36,0.13-0.55,0.04l-1.93-0.87l-2.1,4.19c-0.09,0.17-0.23,0.3-0.4,0.4 l-3.7,1.65c-0.08,0.04-0.13,0.08-0.19,0.11l-5.78,4.04c-0.13,0.09-0.27,0.25-0.32,0.42l-1.57,3.77c-0.06,0.15-0.04,0.3,0.06,0.42 l2.54,2.96c0.06,0.06,0.15,0.09,0.25,0.09l6.67-0.59c0.06,0,0.09-0.02,0.15-0.04l6.94-3.37c0.06-0.04,0.11-0.02,0.17,0.02 l1.69,1.69c0.04,0.06,0.1,0.08,0.15,0.11l4.51,2.16c0.04,0.02,0.08,0.02,0.09,0c0.23-0.36,1.74-2.99,1.99-3.83 c0.25-0.78,2.24-2.24,2.24-2.24l3.92,2.35c0.08,0.06,0.13,0.15,0.13,0.27v5.17c0,0.08-0.02,0.17-0.09,0.23l-4.09,4.64 c-0.08,0.08-0.17,0.15-0.28,0.17l-3.49,0.93c-0.09,0.04-0.15,0.09-0.17,0.19c-0.13,0.83-0.8,5.02-0.8,5.95 c0,0.93-0.51,7-0.59,7.98c-0.02,0.09,0.04,0.15,0.11,0.21l4.57,2.46c0.11,0.06,0.19,0.15,0.23,0.26c0.17,0.55,0.63,2.29-0.06,3.49 c-0.76,1.31-3.77,0.19-4.21,0.02c-0.04-0.02-0.08-0.02-0.11,0c-0.59,0.13-5.27,1.25-6.03,2.01c-0.81,0.81-1.21,4.66-1.21,4.66 l2.1,2.84l-0.3,0.49l-3.11-1.86c-0.06-0.04-0.13,0-0.17,0.06l-1.97,5.36l-1.76-1.95c-0.04-0.06-0.08-0.09-0.11-0.15l-2.79-6.01 l-7.26-3.45l-8.59,0.61c0,0-5.48,2.24-6.08,3.05c-0.42,0.55-0.85,1.52-1.06,2.03c-0.1,0.25-0.04,0.49,0.13,0.68l2.56,2.77 l-2.16,0.97c-0.04,0.04-0.09,0.06-0.17,0.06l-3.62,0.97c-0.09,0.02-0.17,0.06-0.27,0.09l-4.7,2.82c-0.15,0.11-0.34,0.15-0.55,0.15 h-5.99l-7.11,0.61l-5.67,1.02l-6.5,0.61c0,0-6.69,1.63-7.32,1.63c-0.61,0-4.66,2.64-4.66,2.64l-3.85,2.24c0,0-1.21,5.06-1.21,5.88 s0.19,3.45,0.19,3.45l2.03,2.84v4.06l-1.44,1.78c-0.25,0.28-0.61,0.44-0.97,0.42l-3.26-0.17l-5.08-0.8l-2.35-1.38 c-0.06-0.02-0.09-0.08-0.09-0.15v-3.96l-2.63-1.61l-4.45-0.61l-4.47-3.26l-5.69-1.82l-3.24,1.02l-3.66,1.01h-12.17l-4.87,1.82 l-3.87,3.28c37.7,42.78,92.88,69.77,154.38,69.77c113.62,0,205.73-92.11,205.73-205.72C455.72,212.61,445.75,177.56,428.31,147.34 "></path><path opacity="0.1" fill="#FFFFFF" d="M249.99,399.18c82.39,0,149.18-66.79,149.18-149.18 c0-27.15-7.29-52.57-19.96-74.5c-1.24,5.15-0.89,7.97-0.57,9.19c0.15,0.57,0.12,1.18-0.08,1.74c-0.34,1.02-0.79,2.54-0.66,3.07 c0.19,0.8,3.03,7.09,3.03,7.09l1.17,4.04c0.17,0.55,0.25,1.14,0.25,1.73V204c0,0.19-0.11,0.34-0.28,0.38l-5.94,1.63 c-0.28,0.08-0.61-0.02-0.79-0.26l-1.44-1.73c-0.17-0.19-0.19-0.47-0.08-0.7l1.4-2.81c0.27-0.55,0.29-1.19,0.04-1.76l-0.28-0.63 c-0.23-0.47-0.57-0.87-0.98-1.17l-1.37-0.99c-0.53-0.38-1.17-0.59-1.84-0.59h-1.72c-0.87,0-1.72,0.23-2.46,0.66l-2.35,1.33 c-0.51,0.3-1,0.65-1.46,1.02l-2.61,2.18c-0.23,0.19-0.46,0.4-0.66,0.62l-3.53,3.89c-0.28,0.28-0.53,0.61-0.76,0.95l-2.14,3.13 c-0.09,0.13-0.27,0.23-0.43,0.25l-3.13,0.19l0.15-2.05v-4c0-0.11-0.08-0.21-0.19-0.21h-2.31c-0.23,0-0.44,0-0.66,0.04l-1.69,0.19 c-0.68,0.1-1.38,0.06-2.07-0.04c-5.88-0.83-10.12,1.18-12.79,3.21c-1.97,1.5-3.45,3.54-4.38,5.84l-2.62,6.39 c-0.06,0.1-0.04,0.23,0.04,0.3l3.47,4.04c0.04,0.06,0.06,0.13,0.02,0.19l-2.18,4.57l-3.24,4.87l-1.84,5.48l-1.33,6.06 c-0.06,0.27-0.23,0.49-0.47,0.63l-3.75,1.88c-0.21,0.09-0.4,0.25-0.55,0.44l-2.22,2.63c-0.4,0.47-0.85,0.91-1.36,1.27l-2.56,1.8 c-0.08,0.08-0.17,0.11-0.28,0.11c-0.64,0-2.98-0.02-3.51-0.42c-0.57-0.44-2.82-2.04-2.82-2.04v3.2c0,0.21-0.06,0.42-0.13,0.61 l-1.82,4.55c-0.06,0.09-0.17,0.13-0.26,0.09l-3.45-1.72c-0.28-0.13-0.59-0.19-0.89-0.15l-5.48,0.7c-0.23,0.04-0.47,0.08-0.68,0.15 l-4.99,1.55c-0.78,0.24-1.59,0.42-2.41,0.51l-3.71,0.45c-0.08,0-0.15-0.04-0.19-0.09l-0.95-2.05c-0.4-0.83-1.1-1.46-1.96-1.76 l-1.8-0.63c-0.97-0.34-2.03-0.21-2.9,0.34l-1.65,1.04c-0.55,0.34-1.02,0.8-1.4,1.33l-2.29,3.32c-0.27,0.36-0.44,0.76-0.53,1.2 l-1.27,6.05l-3.66,6.9l-1.21,5.48v4.76c0,0.08-0.06,0.13-0.11,0.13l-6.33,1.15c-0.17,0.04-0.34,0.08-0.51,0.12l-4.45,1.25 c-0.23,0.05-0.42,0.23-0.49,0.46l-1.99,5.25c-0.08,0.17-0.08,0.38,0,0.55l2.2,5.14c0.06,0.11-0.06,0.23-0.17,0.21l-3.75-0.89 c-0.13-0.04-0.28,0-0.42,0.08l-5.63,3.75c-0.17,0.11-0.36,0.13-0.55,0.04l-1.93-0.87l-2.1,4.19c-0.09,0.17-0.23,0.3-0.4,0.4 l-3.7,1.65c-0.08,0.04-0.13,0.08-0.19,0.11l-5.78,4.04c-0.13,0.09-0.27,0.25-0.32,0.42l-1.57,3.77c-0.06,0.15-0.04,0.3,0.06,0.42 l2.54,2.96c0.06,0.06,0.15,0.09,0.25,0.09l6.67-0.59c0.06,0,0.09-0.02,0.15-0.04l6.94-3.37c0.05-0.04,0.11-0.02,0.17,0.02 l1.69,1.69c0.04,0.05,0.09,0.08,0.15,0.11l4.51,2.16c0.04,0.02,0.08,0.02,0.09,0c0.23-0.36,1.74-2.99,1.99-3.83 c0.25-0.78,2.24-2.24,2.24-2.24l3.92,2.35c0.08,0.06,0.13,0.15,0.13,0.27v5.17c0,0.08-0.02,0.17-0.09,0.23l-4.09,4.64 c-0.08,0.08-0.17,0.15-0.28,0.17l-3.49,0.93c-0.09,0.04-0.15,0.1-0.17,0.19c-0.13,0.83-0.8,5.02-0.8,5.95 c0,0.93-0.51,6.99-0.59,7.98c-0.02,0.09,0.04,0.15,0.11,0.21l4.57,2.46c0.11,0.06,0.19,0.15,0.23,0.26 c0.17,0.55,0.63,2.29-0.06,3.49c-0.76,1.31-3.77,0.19-4.21,0.02c-0.04-0.02-0.08-0.02-0.11,0c-0.59,0.13-5.27,1.25-6.03,2.01 c-0.81,0.81-1.21,4.66-1.21,4.66l2.1,2.84l-0.3,0.49l-3.11-1.86c-0.06-0.04-0.13,0-0.17,0.06l-1.97,5.36l-1.76-1.95 c-0.04-0.05-0.08-0.09-0.11-0.15l-2.78-6.01l-7.26-3.45l-8.58,0.6c0,0-5.48,2.24-6.08,3.05c-0.42,0.55-0.85,1.52-1.06,2.03 c-0.1,0.25-0.04,0.49,0.13,0.68l2.56,2.76l-2.16,0.97c-0.04,0.04-0.09,0.06-0.17,0.06l-3.62,0.96c-0.09,0.02-0.17,0.06-0.27,0.09 l-4.7,2.83c-0.15,0.11-0.34,0.15-0.55,0.15h-5.99l-7.11,0.61l-5.67,1.02l-6.5,0.61c0,0-6.69,1.63-7.32,1.63 c-0.11,0-0.35,0.1-0.63,0.24C185.62,388.15,216.52,399.18,249.99,399.18"></path><path opacity="0.1" fill="#FFFFFF" d="M241.17,349.22c-0.04-0.02-0.08-0.02-0.11,0c-0.28,0.06-1.5,0.35-2.77,0.72 c3.84,0.45,7.74,0.7,11.71,0.7c55.58,0,100.64-45.06,100.64-100.64c0-16.83-4.15-32.68-11.46-46.62 c-4.05,0.21-7.12,1.76-9.21,3.35c-1.97,1.5-3.45,3.54-4.38,5.84l-2.62,6.39c-0.06,0.1-0.04,0.23,0.04,0.3l3.47,4.04 c0.04,0.06,0.06,0.13,0.02,0.19l-2.18,4.57l-3.24,4.87l-1.84,5.48l-1.33,6.06c-0.06,0.27-0.23,0.49-0.47,0.63l-3.75,1.88 c-0.21,0.09-0.4,0.25-0.55,0.44l-2.22,2.63c-0.4,0.47-0.85,0.91-1.36,1.27l-2.56,1.8c-0.08,0.08-0.17,0.11-0.28,0.11 c-0.64,0-2.97-0.02-3.51-0.42c-0.57-0.44-2.82-2.05-2.82-2.05v3.2c0,0.21-0.06,0.42-0.13,0.61l-1.82,4.55 c-0.06,0.09-0.17,0.13-0.27,0.09l-3.45-1.72c-0.28-0.13-0.59-0.19-0.89-0.15l-5.48,0.7c-0.23,0.04-0.47,0.08-0.68,0.15l-4.99,1.55 c-0.78,0.25-1.59,0.42-2.41,0.51l-3.71,0.46c-0.08,0-0.15-0.04-0.19-0.09l-0.95-2.05c-0.4-0.83-1.1-1.46-1.95-1.76l-1.8-0.63 c-0.97-0.34-2.03-0.21-2.9,0.34l-1.65,1.04c-0.55,0.34-1.02,0.79-1.4,1.33l-2.29,3.32c-0.27,0.36-0.44,0.76-0.53,1.19l-1.27,6.05 l-3.66,6.9l-1.21,5.48v4.76c0,0.08-0.06,0.13-0.11,0.13l-6.33,1.16c-0.17,0.04-0.34,0.08-0.51,0.11l-4.45,1.25 c-0.23,0.06-0.42,0.23-0.49,0.46l-1.99,5.25c-0.08,0.17-0.08,0.38,0,0.55l2.2,5.13c0.06,0.11-0.06,0.23-0.17,0.21l-3.75-0.89 c-0.13-0.04-0.28,0-0.42,0.08l-5.63,3.75c-0.17,0.11-0.36,0.13-0.55,0.04l-1.93-0.87l-2.1,4.19c-0.1,0.17-0.23,0.3-0.4,0.4 l-3.7,1.65c-0.08,0.04-0.13,0.08-0.19,0.11l-5.78,4.04c-0.13,0.09-0.27,0.25-0.32,0.42l-1.57,3.77c-0.06,0.15-0.04,0.3,0.06,0.42 l2.54,2.96c0.06,0.06,0.15,0.09,0.25,0.09l6.67-0.59c0.06,0,0.09-0.02,0.15-0.04l6.94-3.37c0.06-0.04,0.11-0.02,0.17,0.02 l1.69,1.69c0.04,0.06,0.09,0.08,0.15,0.11l4.51,2.16c0.04,0.02,0.08,0.02,0.09,0c0.23-0.36,1.74-3,1.99-3.83 c0.25-0.78,2.24-2.24,2.24-2.24l3.92,2.35c0.08,0.06,0.13,0.15,0.13,0.27v5.17c0,0.08-0.02,0.17-0.09,0.23l-4.09,4.64 c-0.08,0.08-0.17,0.15-0.28,0.17l-3.49,0.93c-0.09,0.04-0.15,0.09-0.17,0.19c-0.13,0.83-0.8,5.02-0.8,5.95 c0,0.93-0.51,6.99-0.59,7.98c-0.02,0.09,0.04,0.15,0.11,0.21l4.57,2.46c0.11,0.06,0.19,0.15,0.23,0.27 c0.17,0.55,0.63,2.29-0.06,3.49C244.62,350.51,241.61,349.39,241.17,349.22"></path><path opacity="0.2" fill="#FFFFFF" d="M250.75,499.99V287.8l-0.4,0.07c-0.2,0.04-0.39,0.08-0.58,0.11l-0.54,0.13 v28.78l0.66,0.35c0.09,0.06,0.15,0.15,0.15,0.27v5.17c0,0.08-0.02,0.17-0.11,0.23l-0.71,0.71v176.37c0.25,0,0.5,0.01,0.76,0.01 C250.25,500,250.5,499.99,250.75,499.99"></path><path opacity="0.2" fill="#FFFFFF" d="M310.92,250.04c-0.18,0.25-0.39,0.49-0.6,0.71h189.67 c0-0.26,0.01-0.51,0.01-0.76c0-0.25-0.01-0.5-0.01-0.76H311.52L310.92,250.04z"></path><g id="FFTir"><path fill="#374688" d="M196.46,258.76c-0.29,0.75-0.57,1.4-0.79,2.06c-0.18,0.56-0.62,0.43-1,0.43 c-2.74,0.01-5.49,0.02-8.24-0.01c-0.67-0.01-1.06,0.14-1.26,0.83c-0.25,0.84-0.59,1.66-0.95,2.46c-0.29,0.65-0.13,0.8,0.55,0.79 c2.54-0.03,5.09,0.03,7.63-0.03c0.9-0.02,0.92,0.24,0.63,0.96c-0.64,1.57-0.61,1.58-2.25,1.58c-2.31,0-4.61,0.02-6.91-0.01 c-0.74-0.01-0.93,0.14-0.72,0.92c1.21,4.44,1.61,8.92,0.52,13.45c-0.55,2.28-1.57,4.32-3.18,6.04c-0.35,0.38-0.48,0.7-0.38,1.25 c0.32,1.88-0.16,3.61-1.08,5.26c-2.35,4.22-5.64,7.6-9.37,10.59c-2.46,1.97-5.09,3.72-7.75,5.41c-0.3,0.19-0.59,0.48-1,0.26 c5.65-6.4,5.64-16.06-3.87-25.07c0.23-0.14,0.42-0.11,0.62,0.03c4.34,3.08,7.84,6.78,8.94,12.22c0.47,2.31,0.08,4.58-0.47,6.83 c-0.04,0.18-0.32,0.35-0.09,0.52c0.21,0.16,0.44,0.01,0.63-0.15c4.4-3.67,8.41-7.68,11.04-12.86c0.35-0.7,0.66-1.42,0.74-2.2 c0.06-0.52-0.06-0.81-0.67-0.46c-1.64,0.94-3.44,1.34-5.34,1.52c4.2-1.78,7.55-4.42,9.1-8.88c1.05-3.03,1.08-7.78,0.05-11.12 c-0.41,1.03-0.77,1.87-1.07,2.74c-0.18,0.51-0.43,0.78-1.02,0.72c-0.6-0.06-1.22-0.05-1.83,0c-0.75,0.07-0.76-0.22-0.52-0.8 c0.96-2.42,1.89-4.85,2.84-7.28c0.15-0.38,0.32-0.75,0.19-1.17c-0.93-3-2.11-5.9-3.64-8.97c-0.08,1.88-0.1,3.48-0.23,5.07 c-0.32,3.85-0.83,7.68-2.47,11.24c-1.61,3.5-3.99,6.21-7.95,7.08c-1.3,0.29-2.62,0.33-3.92,0.08 c7.19-1.57,10.23-6.94,12.08-13.33c1.08-3.73,1.42-7.58,1.53-11.45c0.01-0.36,0.04-0.73,0.07-1.36c2.31,3.02,4.07,6.07,5.65,9.47 c0.56-1.43,1.04-2.69,1.55-3.95c0.13-0.32,0.17-0.71,0.71-0.71C187.8,258.77,192.06,258.76,196.46,258.76"></path><path fill="#E34551" d="M149.1,274.3c-0.01,0.02-0.04,0.05-0.04,0.07c0.01,0.03,0.04,0.05,0.07,0.07 c0.01-0.04,0.03-0.09,0.04-0.14C149.15,274.3,149.13,274.3,149.1,274.3 M155.09,280.46c-0.02-0.02-0.05-0.06-0.07-0.06 c-0.03,0-0.05,0.04-0.08,0.06c0.03,0.02,0.05,0.06,0.08,0.06C155.04,280.53,155.07,280.49,155.09,280.46 M125,283.46 c6.69-6.58,13.98-11.18,23.89-9.13c-0.09-0.58-0.58-0.67-0.93-0.86c-8.88-5.11-17.92-4.66-27.04-0.75 c-3.26,1.4-6.12,3.45-8.94,5.6c-1.22,0.93-2.2,2.13-3.5,2.96c0.97-1.37,2.07-2.63,3.24-3.83c4.72-4.85,10.23-8.34,16.93-9.72 c8.39-1.73,15.91,0.38,22.79,5.23c5.69,4.01,9.85,9.34,13.25,15.33c0.07,0.12,0.15,0.23,0.19,0.36c0.09,0.25,0.17,0.5,0.26,0.77 c-0.52-0.16-0.82-0.56-1.17-0.9c-2.72-2.67-5.84-4.71-9.45-6c-5.93-2.13-11.47-1.14-16.73,2.05c-0.75,0.46-1.44,1.01-2.16,1.52 c-0.27,0.19-0.49,0.5-0.89,0.36c2.07-2.67,5.62-5.15,8.97-6.21c3.68-1.16,7.35-0.78,11,0.24c0.1-0.5-0.26-0.6-0.48-0.75 c-4.07-2.87-8.5-4.51-13.56-3.69c-3.59,0.58-6.88,2-10.01,3.82c-1.71,0.99-3.38,2.04-4.89,3.33 C125.61,283.31,125.47,283.55,125,283.46"></path><path fill="#E34551" d="M173.14,248.33c-1.26,0.66-2.51,1.32-3.77,1.97c-4.89,2.53-10.05,4-15.58,4.03 c-0.19,0-0.38,0.01-0.6-0.03c4.66-1.01,9.34-2,13.38-4.82c-3.39,0.19-6.77,0.49-10.1-0.36c3.08-0.15,6.16-0.31,9.2-0.92 c1.83-0.36,3.64-0.79,5.4-1.4c3.85-1.33,5.88-3.09,5.7-7.87c0.86,1.17,1.11,2.32,0.85,3.6c-0.2,0.98-0.68,1.83-1.07,2.73 c-0.03,0.08-0.1,0.19-0.07,0.23c0.09,0.12,0.2,0.05,0.3-0.02c3.83-1.65,7.77-2.97,11.9-3.69c1.96-0.34,3.92-0.69,5.54-0.71 c-4.44,1.06-9.29,2.06-13.78,4.25c-1.93,0.94-3.76,2.02-5.28,3.55c-2.08,2.1-2.91,4.52-1.81,7.4c0.08,0.21,0.28,0.48,0.03,0.63 c-0.32,0.19-0.48-0.16-0.63-0.36c-1.06-1.37-1.35-2.91-0.99-4.6c0.27-1.27,0.97-2.36,1.5-3.53c0.03-0.06,0.06-0.11,0.09-0.17 C173.28,248.29,173.21,248.31,173.14,248.33"></path><path fill="#374688" d="M205.47,259.03c-2.17,0-4.34,0.01-6.5-0.01c-0.46,0-0.66,0.23-0.81,0.61c-0.97,2.52-1.94,5.04-2.95,7.55 c-0.27,0.67,0.01,0.71,0.56,0.71c0.48,0,0.65-0.26,0.79-0.63c0.34-0.89,0.73-1.75,1.01-2.65c0.2-0.62,0.51-0.85,1.16-0.82 c1.32,0.05,2.64-0.01,3.96,0.03c0.63,0.01,0.96-0.2,0.96-0.85c-0.07-0.03-0.13-0.08-0.19-0.08c-1.02-0.01-2.03-0.01-3.05-0.01 c-2.17,0-2.13,0.01-1.39-2.06c0.26-0.72,0.63-0.89,1.33-0.87c1.39,0.05,2.78-0.01,4.17,0.03 C205.19,259.98,205.49,259.74,205.47,259.03 M201.04,264.35c-2.73,0-2.73,0-3.73,2.56c-0.61,1.56-1.06,1.8-2.69,1.53 c-0.42-0.07-0.4-0.22-0.28-0.53c1.17-2.99,2.33-5.98,3.48-8.98c0.13-0.35,0.33-0.47,0.68-0.47c2.44,0.01,4.88,0.01,7.31,0 c0.46,0,0.57,0.1,0.42,0.58c-0.47,1.47-0.44,1.48-2.02,1.48c-1.22,0-2.44-0.01-3.66,0c-0.66,0-1.36,0.82-1.29,1.47 c0.04,0.44,0.39,0.3,0.62,0.3c1.35,0.01,2.71,0.02,4.06,0c0.5-0.01,0.63,0.09,0.46,0.63c-0.3,1-0.74,1.68-1.96,1.44 C202,264.27,201.52,264.35,201.04,264.35"></path><path fill="#E34551" d="M209.41,259.58c-0.64,0-1.22,0.03-1.79-0.01c-0.27-0.02-0.79,0.24-0.75-0.33 c0.02-0.42,0.18-0.85,0.81-0.84c1.46,0.03,2.91,0.01,4.37,0.01c0.47,0,0.95-0.03,1.42,0.01c0.24,0.02,0.72-0.23,0.67,0.3 c-0.04,0.36-0.1,0.85-0.67,0.86c-0.1,0-0.2,0-0.31,0c-2.13,0.07-2.13,0.07-2.92,2.09c-0.46,1.2-0.98,2.38-1.38,3.59 c-0.29,0.87-0.96,0.63-1.5,0.55c-0.4-0.06-0.11-0.45-0.02-0.67c0.62-1.61,1.25-3.21,1.87-4.82 C209.28,260.11,209.32,259.89,209.41,259.58"></path><path fill="#E34551" d="M219.4,259.07c-0.02-0.02-0.04-0.04-0.06-0.06c-0.02,0.02-0.04,0.04-0.06,0.06l0.09,0.06 C219.38,259.11,219.39,259.09,219.4,259.07 M220.99,259.67c-1.33-0.03-2.23,0.55-2.72,1.74c-0.27,0.66-0.5,1.32-0.76,1.98 c-0.11,0.28-0.18,0.61-0.59,0.58c-0.3-0.02-0.65,0.12-0.87-0.11c-0.22-0.23,0.04-0.51,0.13-0.75c0.5-1.32,1.01-2.64,1.54-3.96 c0.35-0.87,0.86-1,1.62-0.35c0.22,0.18,0.34,0.12,0.52,0.04c0.34-0.15,0.67-0.33,1.02-0.44c0.35-0.1,0.8-0.23,1.07,0.01 c0.26,0.22-0.1,0.54-0.16,0.83C221.69,259.7,221.38,259.81,220.99,259.67"></path><path fill="#E34551" d="M214.03,263.96c-0.69,0.11-0.74-0.18-0.51-0.74c0.56-1.37,1.09-2.76,1.62-4.14 c0.14-0.37,0.28-0.65,0.76-0.65c0.62,0,0.98,0.02,0.63,0.81c-0.59,1.36-1.1,2.76-1.62,4.14 C214.75,263.82,214.52,264.07,214.03,263.96"></path><path fill="#E34551" d="M216.43,257.53c-0.14-0.08-0.62,0.25-0.54-0.31c0.08-0.55,0.35-0.94,1-0.82 c0.22,0.04,0.64-0.16,0.57,0.3C217.39,257.2,217.22,257.7,216.43,257.53"></path><path fill="#E34551" d="M134.19,286.87c-0.04,0.03-0.07,0.06-0.11,0.09C134.23,287.05,134.17,286.92,134.19,286.87z "></path><path fill="#E34551" d="M134.19,286.87l0.03-0.03L134.19,286.87z"></path><path fill="#E34551" d="M155.1,280.46c-0.02,0.02-0.05,0.06-0.08,0.06c-0.02,0-0.05-0.04-0.07-0.06 c0.03-0.02,0.05-0.06,0.08-0.06C155.05,280.4,155.07,280.44,155.1,280.46"></path><path fill="#E34551" d="M149.1,274.3c0.02,0,0.05,0,0.07,0c-0.01,0.05-0.03,0.09-0.04,0.14 c-0.03-0.02-0.06-0.04-0.07-0.07C149.06,274.35,149.09,274.32,149.1,274.3"></path><path fill="#FEFEFF" d="M205.47,259.03c0.01,0.72-0.29,0.96-0.93,0.94c-1.39-0.04-2.78,0.02-4.17-0.03 c-0.7-0.02-1.08,0.15-1.33,0.87c-0.74,2.07-0.78,2.05,1.39,2.06c1.02,0,2.03,0,3.05,0.01c0.06,0,0.12,0.05,0.19,0.08 c0,0.65-0.34,0.86-0.96,0.85c-1.32-0.03-2.64,0.02-3.96-0.03c-0.66-0.03-0.97,0.2-1.16,0.82c-0.28,0.9-0.67,1.77-1.01,2.65 c-0.14,0.37-0.31,0.63-0.79,0.63c-0.55,0-0.83-0.04-0.56-0.71c1.01-2.51,1.98-5.03,2.95-7.55c0.15-0.38,0.34-0.61,0.81-0.61 C201.14,259.03,203.3,259.03,205.47,259.03"></path><path fill="#E34551" d="M219.4,259.07c-0.01,0.02-0.02,0.04-0.03,0.06l-0.09-0.06c0.02-0.02,0.04-0.04,0.06-0.06 C219.36,259.03,219.38,259.05,219.4,259.07"></path></g><g><path fill="#393A3A" d="M58.58,327.96c-1.06,0-2.03-0.14-2.89-0.41c-0.86-0.27-1.6-0.66-2.22-1.16c-0.61-0.5-1.08-1.1-1.42-1.81 c-0.33-0.71-0.5-1.49-0.5-2.35c0-1.71,0.46-3.11,1.39-4.18c0.93-1.07,2.23-1.83,3.91-2.27c-1.04-0.4-1.82-0.99-2.34-1.77 c-0.52-0.78-0.78-1.69-0.78-2.73c0-0.94,0.19-1.81,0.58-2.62c0.39-0.81,0.92-1.52,1.6-2.12c0.68-0.6,1.5-1.07,2.44-1.41 c0.95-0.34,1.98-0.51,3.11-0.51c0.97,0,1.84,0.14,2.61,0.42c0.77,0.28,1.43,0.66,1.97,1.14c0.54,0.48,0.96,1.05,1.25,1.71 c0.29,0.65,0.44,1.35,0.44,2.1c0,1.39-0.37,2.6-1.12,3.61c-0.75,1.01-1.84,1.75-3.28,2.23c1.25,0.37,2.2,0.97,2.87,1.79 c0.67,0.82,1,1.85,1,3.09c0,1.12-0.22,2.12-0.65,3.01c-0.43,0.89-1.04,1.66-1.8,2.29c-0.77,0.63-1.68,1.12-2.73,1.45 C60.96,327.79,59.82,327.96,58.58,327.96z M58.84,325.78c0.84,0,1.59-0.12,2.27-0.37s1.26-0.58,1.74-1.02 c0.48-0.44,0.85-0.96,1.11-1.58c0.26-0.62,0.39-1.3,0.39-2.04c0-0.68-0.12-1.26-0.36-1.74c-0.24-0.48-0.57-0.87-0.97-1.17 c-0.41-0.3-0.88-0.53-1.41-0.67c-0.53-0.14-1.08-0.21-1.65-0.21c-0.71,0-1.39,0.09-2.05,0.29c-0.66,0.19-1.24,0.49-1.75,0.89 c-0.51,0.4-0.92,0.92-1.22,1.55c-0.31,0.63-0.46,1.39-0.46,2.27c0,0.56,0.1,1.08,0.29,1.54c0.19,0.46,0.48,0.86,0.85,1.2 c0.38,0.33,0.83,0.6,1.37,0.78S58.14,325.78,58.84,325.78z M60.21,314.77c0.87,0,1.61-0.14,2.22-0.41 c0.61-0.28,1.1-0.64,1.48-1.08c0.38-0.44,0.66-0.93,0.83-1.47c0.17-0.54,0.26-1.08,0.26-1.63c0-0.48-0.08-0.93-0.23-1.34 c-0.16-0.42-0.39-0.78-0.7-1.09c-0.31-0.31-0.7-0.56-1.18-0.74c-0.47-0.18-1.03-0.27-1.66-0.27c-0.77,0-1.46,0.12-2.05,0.36 c-0.6,0.24-1.1,0.56-1.51,0.96c-0.41,0.4-0.72,0.88-0.93,1.44c-0.21,0.55-0.31,1.14-0.31,1.75c0,0.46,0.07,0.9,0.21,1.32 c0.14,0.42,0.36,0.8,0.67,1.12c0.31,0.32,0.7,0.58,1.18,0.78C58.96,314.67,59.54,314.77,60.21,314.77z"></path><path fill="#393A3A" d="M80.8,304.63c0.9,0,1.73,0.12,2.47,0.37c0.75,0.25,1.38,0.59,1.91,1.05 c0.53,0.45,0.93,1,1.22,1.63c0.29,0.64,0.43,1.34,0.43,2.12c0,0.84-0.11,1.58-0.34,2.22c-0.23,0.64-0.54,1.2-0.96,1.68 c-0.41,0.48-0.91,0.88-1.5,1.19c-0.58,0.31-1.24,0.57-1.96,0.76c1.31,0.37,2.3,0.97,2.96,1.79c0.66,0.83,0.99,1.83,0.99,3.02 c0,1.15-0.23,2.18-0.69,3.1c-0.46,0.92-1.08,1.71-1.87,2.36c-0.78,0.65-1.69,1.16-2.73,1.51c-1.04,0.35-2.12,0.53-3.26,0.53 c-1.07,0-2.01-0.12-2.82-0.37c-0.81-0.24-1.49-0.61-2.06-1.1c-0.57-0.49-1.03-1.11-1.39-1.85c-0.35-0.74-0.62-1.62-0.79-2.63 l1.29-0.48c0.24-0.09,0.45-0.13,0.65-0.13c0.2,0,0.38,0.04,0.52,0.13c0.14,0.08,0.24,0.21,0.3,0.38 c0.17,0.62,0.38,1.15,0.61,1.62c0.24,0.46,0.53,0.85,0.89,1.16c0.35,0.31,0.78,0.54,1.27,0.69c0.49,0.15,1.09,0.23,1.79,0.23 c0.88,0,1.67-0.15,2.35-0.45c0.69-0.3,1.26-0.69,1.73-1.16c0.47-0.48,0.82-1.02,1.07-1.63c0.25-0.61,0.37-1.22,0.37-1.85 c0-0.51-0.08-0.98-0.24-1.41c-0.16-0.43-0.45-0.8-0.87-1.12c-0.42-0.31-0.98-0.56-1.69-0.74c-0.71-0.18-1.61-0.27-2.71-0.27 l0.26-1.96c2.04-0.04,3.56-0.48,4.56-1.3c1-0.82,1.5-1.95,1.5-3.37c0-0.56-0.09-1.06-0.27-1.48c-0.18-0.43-0.44-0.78-0.77-1.06 c-0.33-0.28-0.73-0.49-1.18-0.63c-0.45-0.14-0.95-0.21-1.48-0.21c-1.22,0-2.26,0.31-3.09,0.94c-0.84,0.63-1.46,1.48-1.87,2.55 c-0.12,0.31-0.27,0.53-0.46,0.65c-0.19,0.13-0.41,0.19-0.67,0.19c-0.05,0-0.11,0-0.17-0.01c-0.06,0-0.12-0.01-0.17-0.02 l-1.42-0.24c0.27-1.04,0.67-1.96,1.2-2.76c0.53-0.8,1.16-1.47,1.88-2.01c0.72-0.54,1.52-0.95,2.4-1.23 C78.88,304.77,79.81,304.63,80.8,304.63z"></path></g><g><path fill="#393A3A" d="M323.17,71.68c1.02,0,1.96,0.19,2.82,0.58c0.86,0.39,1.6,0.97,2.21,1.74c0.62,0.77,1.1,1.74,1.45,2.9 s0.52,2.52,0.52,4.07c0,2.37-0.26,4.44-0.79,6.2c-0.53,1.76-1.24,3.22-2.14,4.38c-0.9,1.16-1.95,2.02-3.15,2.59 c-1.2,0.57-2.47,0.85-3.83,0.85c-1.03,0-1.98-0.19-2.84-0.58c-0.86-0.39-1.6-0.97-2.21-1.74c-0.62-0.77-1.1-1.74-1.45-2.9 c-0.35-1.16-0.52-2.53-0.52-4.09c0-2.37,0.26-4.44,0.79-6.19c0.52-1.75,1.24-3.21,2.14-4.37c0.9-1.16,1.95-2.02,3.16-2.59 C320.54,71.96,321.81,71.68,323.17,71.68z M320.62,92.68c0.9,0,1.76-0.24,2.57-0.71c0.81-0.47,1.52-1.19,2.13-2.15 s1.09-2.17,1.44-3.63c0.36-1.46,0.53-3.18,0.53-5.16c0-1.27-0.12-2.36-0.36-3.26c-0.24-0.9-0.57-1.63-0.98-2.19 c-0.41-0.56-0.88-0.97-1.42-1.23c-0.54-0.25-1.12-0.38-1.72-0.38c-0.9,0-1.76,0.24-2.57,0.71c-0.81,0.47-1.52,1.19-2.13,2.15 c-0.61,0.96-1.09,2.17-1.44,3.64c-0.36,1.46-0.53,3.18-0.53,5.16c0,1.28,0.12,2.36,0.36,3.26c0.24,0.9,0.57,1.63,0.97,2.19 c0.41,0.56,0.88,0.96,1.42,1.22C319.45,92.55,320.02,92.68,320.62,92.68z"></path><path fill="#393A3A" d="M341.89,80.78c0.85,0,1.64,0.13,2.38,0.4c0.74,0.27,1.38,0.65,1.92,1.17c0.54,0.51,0.97,1.13,1.28,1.87 c0.31,0.73,0.47,1.56,0.47,2.49c0,1.18-0.23,2.28-0.68,3.29c-0.45,1.01-1.07,1.89-1.87,2.63c-0.79,0.74-1.73,1.33-2.81,1.75 c-1.08,0.43-2.25,0.64-3.52,0.64c-1.05,0-1.99-0.16-2.82-0.48c-0.83-0.32-1.53-0.77-2.11-1.35c-0.58-0.58-1.02-1.29-1.33-2.11 s-0.46-1.73-0.46-2.74c0-0.66,0.08-1.3,0.23-1.94c0.15-0.63,0.38-1.27,0.68-1.91c0.31-0.64,0.69-1.3,1.16-1.96 c0.46-0.66,1.02-1.36,1.67-2.1l6.88-7.83c0.16-0.18,0.38-0.33,0.65-0.46c0.27-0.13,0.57-0.19,0.89-0.19h2.46l-7.92,8.57 c-0.49,0.54-0.94,1.05-1.34,1.51c0.59-0.38,1.24-0.68,1.94-0.9C340.34,80.89,341.09,80.78,341.89,80.78z M334.96,88.42 c0,0.63,0.1,1.2,0.29,1.73c0.19,0.53,0.47,0.98,0.84,1.36c0.36,0.38,0.82,0.68,1.35,0.89c0.54,0.21,1.15,0.32,1.84,0.32 c0.85,0,1.63-0.14,2.34-0.42c0.71-0.28,1.33-0.67,1.85-1.17c0.52-0.5,0.93-1.09,1.22-1.77c0.29-0.68,0.44-1.42,0.44-2.23 c0-0.65-0.11-1.23-0.31-1.76c-0.21-0.53-0.51-0.97-0.89-1.34c-0.38-0.37-0.84-0.65-1.39-0.85c-0.54-0.2-1.15-0.3-1.81-0.3 c-0.85,0-1.63,0.15-2.34,0.45c-0.71,0.3-1.32,0.7-1.82,1.2c-0.5,0.5-0.9,1.09-1.18,1.76C335.1,86.97,334.96,87.68,334.96,88.42z"></path></g><g id="COTE_d_AZUR"><path fill="#262523" d="M61.24,207.26c-3.21,0-5.5-0.67-6.86-2.02c-1.37-1.34-2.08-3.57-2.13-6.68 c-0.05-2.62-0.09-5.39-0.11-8.31c-0.02-2.92-0.02-5.85,0-8.78c0.02-2.93,0.05-5.72,0.11-8.35c0.03-2.72,0.76-4.84,2.17-6.35 c1.41-1.51,3.68-2.26,6.8-2.26c3.1,0,5.35,0.67,6.74,2.02c1.39,1.34,2.14,3.56,2.25,6.65c0.02,0.93,0.02,2.07,0,3.44 c-0.02,1.37-0.03,2.52-0.05,3.44h-5.71c0.02-1.15,0.03-2.47,0.05-3.94c0.02-1.48,0.01-2.79-0.03-3.94 c-0.05-2.01-1.14-3.01-3.25-3.01s-3.2,1-3.25,3.01c-0.12,4.42-0.19,8.98-0.19,13.69c0,4.71,0.06,9.27,0.19,13.69 c0.05,2.02,1.15,3.04,3.28,3.04c2.24,0,3.38-1.01,3.44-3.04c0.04-1.19,0.05-2.55,0.04-4.08c-0.01-1.54-0.02-2.89-0.04-4.06h5.71 c0.04,1.15,0.05,2.34,0.05,3.57c0,1.23-0.01,2.42-0.03,3.57c-0.11,3.11-0.87,5.33-2.29,6.68 C66.71,206.59,64.42,207.26,61.24,207.26z"></path><path fill="#262523" d="M88.77,207.26c-3.17,0-5.46-0.67-6.86-2c-1.4-1.33-2.13-3.56-2.18-6.66c-0.19-8.48-0.19-16.97,0-25.47 c0.05-3.09,0.78-5.3,2.18-6.64c1.4-1.34,3.69-2,6.86-2s5.45,0.67,6.82,2c1.38,1.34,2.11,3.55,2.19,6.64 c0.23,8.53,0.23,17.02,0,25.47c-0.09,3.11-0.82,5.33-2.19,6.66C94.22,206.59,91.94,207.26,88.77,207.26z M88.77,202.58 c2.15,0,3.25-1,3.31-2.98c0.11-2.9,0.17-5.92,0.2-9.07s0.02-6.29-0.01-9.42c-0.04-3.13-0.1-6.12-0.19-8.97 c-0.05-1.99-1.15-2.98-3.31-2.98c-2.17,0-3.28,1-3.33,2.98c-0.11,2.85-0.18,5.83-0.21,8.97c-0.04,3.13-0.04,6.27,0,9.42 s0.11,6.17,0.21,9.07C85.49,201.58,86.6,202.58,88.77,202.58z M83.22,162.83l3.89-6.6h3.44l3.86,6.6h-3.83l-1.74-3.3l-1.77,3.3 H83.22z"></path><path fill="#262523" d="M111.24,206.82v-36.86h-6.08v-5.02h17.9v5.02h-6.08v36.86H111.24z"></path><path fill="#262523" d="M131.1,206.82v-41.88h15.12v5.02h-9.41v13.14h8.88v5.03h-8.88v13.66h9.41v5.03H131.1z"></path><path fill="#262523" d="M177.48,207.26c-1.94,0-3.41-0.58-4.4-1.75c-1-1.17-1.56-3.1-1.68-5.79c-0.04-1.55-0.06-3.35-0.08-5.4 c-0.02-2.05-0.02-4.12,0-6.2c0.02-2.08,0.04-3.96,0.08-5.61c0.12-2.71,0.7-4.64,1.73-5.8c1.03-1.16,2.51-1.74,4.43-1.74 c1.45,0,2.54,0.3,3.28,0.9c0.74,0.6,1.43,1.48,2.06,2.63h0.87v-13.56h5.71v41.88h-5.71v-3.09h-0.9 c-0.64,1.13-1.33,2.01-2.09,2.62C180.03,206.96,178.92,207.26,177.48,207.26z M179.7,203.05c0.85,0,1.65-0.23,2.42-0.69 c0.77-0.46,1.32-1.14,1.65-2.03V181.9c-0.33-0.89-0.89-1.56-1.65-2.03c-0.77-0.46-1.57-0.69-2.42-0.69 c-0.88,0-1.52,0.23-1.92,0.68c-0.4,0.45-0.61,1.18-0.65,2.17c-0.09,1.95-0.14,4.01-0.16,6.15c-0.02,2.15-0.02,4.25,0,6.32 c0.02,2.07,0.07,3.97,0.16,5.69c0.04,1,0.25,1.72,0.65,2.17C178.18,202.82,178.82,203.05,179.7,203.05z"></path><path fill="#262523" d="M200.48,177.39l2.65-6.38h-3.57v-6.07h7.51v5.52l-3.44,6.93H200.48z"></path><path fill="#262523" d="M215.47,206.82l5.18-41.88h9.52l5.18,41.88h-5.84l-1-10.44h-6.19l-0.98,10.44H215.47z M222.88,191.35h5.1 l-0.9-9.21l-0.93-12.17h-1.48l-0.9,12.17L222.88,191.35z"></path><path fill="#262523" d="M242.39,206.82v-4.69l11-32.17H243v-5.02h16.5v4.79l-11.37,32.06h10.5v5.03H242.39z"></path><path fill="#262523" d="M276.81,207.26c-3.19,0-5.48-0.67-6.87-2c-1.39-1.33-2.11-3.56-2.14-6.66 c-0.14-11.22-0.14-22.44,0-33.66h5.71c-0.09,5.58-0.13,11.36-0.12,17.33c0.01,5.97,0.04,11.74,0.09,17.33 c0,1.99,1.11,2.98,3.33,2.98c2.19,0,3.28-1,3.28-2.98c0.05-5.59,0.09-11.36,0.11-17.33c0.02-5.97-0.02-11.74-0.11-17.33h5.71 c0.14,11.22,0.14,22.44,0,33.66c-0.04,3.11-0.74,5.33-2.13,6.66C282.29,206.59,280.01,207.26,276.81,207.26z"></path><path fill="#262523" d="M295.62,206.82v-41.88h8.33c3.15,0,5.44,0.66,6.86,1.98c1.42,1.32,2.18,3.49,2.29,6.5 c0.07,1.9,0.11,3.6,0.11,5.08c0,1.48-0.04,3.07-0.11,4.76c-0.12,3.89-1.43,6.41-3.91,7.54l4.63,16.02h-6.08l-3.94-15.08h-2.46 v15.08H295.62z M301.33,186.74h2.59c2.2,0,3.36-1.06,3.46-3.19c0.16-3.47,0.16-6.95,0-10.42c-0.11-2.11-1.25-3.17-3.44-3.17 h-2.62V186.74z"></path></g><g id="LIGUE_de_TIR"><path fill="#262523" d="M53.79,148.57v-28.13h3.84v24.75h6.34v3.38H53.79z"></path><path fill="#262523" d="M69.59,148.57v-28.13h3.84v28.13H69.59z"></path><path fill="#262523" d="M86.23,148.87c-2.17,0-3.7-0.45-4.61-1.36c-0.91-0.91-1.39-2.4-1.46-4.49 c-0.04-1.72-0.06-3.56-0.08-5.52c-0.02-1.96-0.02-3.91,0-5.85c0.02-1.95,0.04-3.77,0.08-5.47c0.08-2.18,0.58-3.73,1.5-4.65 c0.92-0.92,2.44-1.38,4.55-1.38c2.02,0,3.5,0.45,4.43,1.35c0.93,0.9,1.45,2.39,1.57,4.46c0.07,1.55,0.07,3.09,0,4.62h-3.84 c0.04-0.8,0.05-1.68,0.05-2.64s-0.02-1.85-0.05-2.65c-0.07-1.35-0.79-2.02-2.17-2.02c-1.42,0-2.16,0.67-2.22,2.02 c-0.11,2.93-0.16,6-0.16,9.19c0,3.2,0.05,6.26,0.16,9.19c0.05,1.36,0.79,2.04,2.24,2.04c1.49,0,2.28-0.68,2.36-2.04 c0.02-0.68,0.04-1.44,0.04-2.29c0-0.85-0.01-1.62-0.04-2.29h-2.17v-3.32h5.91c0.04,0.99,0.05,2.1,0.04,3.35 c-0.01,1.25-0.03,2.55-0.08,3.89c-0.1,2.09-0.61,3.58-1.55,4.49C89.81,148.42,88.3,148.87,86.23,148.87z"></path><path fill="#262523" d="M104.59,148.87c-2.14,0-3.68-0.45-4.62-1.35c-0.94-0.9-1.42-2.39-1.44-4.47 c-0.09-7.53-0.09-15.07,0-22.6h3.83c-0.06,3.75-0.09,7.63-0.08,11.64c0.01,4.01,0.03,7.89,0.06,11.64c0,1.34,0.75,2,2.24,2 c1.47,0,2.2-0.67,2.2-2c0.03-3.75,0.06-7.63,0.07-11.64c0.01-4.01-0.01-7.89-0.07-11.64h3.83c0.09,7.54,0.09,15.07,0,22.6 c-0.02,2.09-0.5,3.58-1.43,4.47C108.27,148.42,106.73,148.87,104.59,148.87z"></path><path fill="#262523" d="M117.21,148.57v-28.13h10.16v3.37h-6.32v8.82h5.97v3.38h-5.97v9.18h6.32v3.38H117.21z"></path><path fill="#262523" d="M148.34,148.87c-1.3,0-2.29-0.39-2.96-1.18c-0.67-0.78-1.04-2.08-1.13-3.89 c-0.02-1.04-0.04-2.25-0.05-3.63c-0.01-1.38-0.01-2.77,0-4.17c0.01-1.4,0.03-2.66,0.05-3.77c0.08-1.82,0.47-3.11,1.16-3.89 c0.69-0.78,1.68-1.17,2.98-1.17c0.97,0,1.7,0.2,2.2,0.61c0.5,0.4,0.96,0.99,1.39,1.77h0.59v-9.1h3.84v28.13h-3.84v-2.07h-0.6 c-0.43,0.76-0.89,1.35-1.4,1.76C150.05,148.66,149.31,148.87,148.34,148.87z M149.83,146.04c0.57,0,1.11-0.16,1.62-0.47 c0.52-0.31,0.88-0.76,1.11-1.36v-12.38c-0.23-0.6-0.59-1.05-1.11-1.36c-0.52-0.31-1.06-0.47-1.62-0.47 c-0.59,0-1.02,0.15-1.29,0.46s-0.41,0.79-0.44,1.46c-0.06,1.31-0.09,2.69-0.11,4.13c-0.01,1.44-0.01,2.86,0,4.25 c0.01,1.39,0.05,2.66,0.11,3.82c0.02,0.67,0.17,1.15,0.44,1.46C148.81,145.89,149.24,146.04,149.83,146.04z"></path><path fill="#262523" d="M168.51,148.87c-2.01,0-3.48-0.41-4.39-1.22c-0.91-0.81-1.42-2.17-1.51-4.05 c-0.02-0.67-0.04-1.49-0.05-2.45c-0.01-0.97-0.02-1.98-0.02-3.04c0-1.06,0.01-2.08,0.02-3.07c0.01-0.98,0.03-1.83,0.05-2.53 c0.12-1.91,0.63-3.28,1.54-4.1c0.91-0.82,2.35-1.23,4.32-1.23c1.94,0,3.35,0.4,4.23,1.2c0.88,0.8,1.37,2.12,1.46,3.96 c0.01,0.32,0.02,0.81,0.03,1.49c0.01,0.67,0.01,1.44,0,2.3c-0.01,0.86-0.03,1.72-0.06,2.58h-7.74c0,0.85,0.01,1.72,0.03,2.59 c0.02,0.87,0.03,1.77,0.04,2.68c0.02,0.74,0.19,1.25,0.51,1.55c0.31,0.29,0.82,0.44,1.52,0.44c0.66,0,1.14-0.15,1.42-0.44 c0.28-0.29,0.44-0.81,0.48-1.55c0.04-0.74,0.04-1.78,0-3.13h3.75c0.02,0.33,0.04,0.76,0.04,1.3c0.01,0.54,0,1.02-0.01,1.44 c-0.09,1.89-0.57,3.24-1.44,4.05C171.88,148.46,170.47,148.87,168.51,148.87z M166.4,135.98h4.03c0.01-0.87,0.01-1.69,0.01-2.46 c-0.01-0.77-0.02-1.3-0.04-1.58c-0.04-0.67-0.2-1.15-0.5-1.43c-0.3-0.29-0.77-0.43-1.42-0.43c-0.71,0-1.22,0.14-1.52,0.43 c-0.3,0.29-0.46,0.77-0.49,1.43c-0.01,0.73-0.02,1.42-0.03,2.08C166.42,134.69,166.41,135.34,166.4,135.98z"></path><path fill="#262523" d="M193.98,148.57v-24.75h-4.08v-3.37h12.02v3.37h-4.08v24.75H193.98z"></path><path fill="#262523" d="M207.3,148.57v-28.13h3.83v28.13H207.3z"></path><path fill="#262523" d="M217.98,148.57v-28.13h5.59c2.12,0,3.65,0.44,4.61,1.33c0.95,0.89,1.47,2.34,1.54,4.37 c0.05,1.28,0.07,2.41,0.07,3.41s-0.02,2.06-0.07,3.2c-0.08,2.61-0.96,4.3-2.63,5.06l3.11,10.76h-4.08l-2.65-10.13h-1.65v10.13 H217.98z M221.82,135.09h1.74c1.48,0,2.26-0.71,2.33-2.14c0.11-2.33,0.11-4.67,0-7c-0.07-1.42-0.84-2.13-2.31-2.13h-1.76V135.09z "></path></g></svg> 